<svg width="13" height="14" viewBox="0 0 13 14" fill="none" xmlns="http://www.w3.org/2000/svg">
<path d="M4.85156 2.77324C4.6875 2.77324 4.55469 2.63262 4.55469 2.46856C4.55469 2.30449 4.6875 2.16387 4.85156 2.16387C5.02344 2.16387 5.15625 2.30449 5.15625 2.46856C5.15625 2.63262 5.02344 2.77324 4.85156 2.77324ZM8.14844 2.77324C7.97656 2.77324 7.84375 2.63262 7.84375 2.46856C7.84375 2.30449 7.97656 2.16387 8.14844 2.16387C8.3125 2.16387 8.44531 2.30449 8.44531 2.46856C8.44531 2.63262 8.3125 2.77324 8.14844 2.77324ZM1.80469 4.21074C1.35938 4.21074 1 4.57012 1 5.00762V8.36699C1 8.8123 1.35938 9.17168 1.80469 9.17168C2.25 9.17168 2.60156 8.8123 2.60156 8.36699V5.00762C2.60156 4.57012 2.24219 4.21074 1.80469 4.21074ZM10.0859 4.35918H2.91406V9.56231C2.91406 10.0389 3.29688 10.4217 3.77344 10.4217H4.35156L4.35938 12.1951C4.35938 12.6404 4.71875 12.9998 5.15625 12.9998C5.60156 12.9998 5.96094 12.6404 5.96094 12.1951V10.4217H7.03906V12.1951C7.03906 12.6404 7.39844 12.9998 7.84375 12.9998C8.28906 12.9998 8.64844 12.6404 8.64844 12.1951V10.4217H9.23438C9.70313 10.4217 10.0859 10.0389 10.0859 9.56231V4.35918ZM8.27344 1.19512L8.82813 0.171679C8.85938 0.116992 8.84375 0.0466798 8.78906 0.0154299C8.73438 -0.00800775 8.66406 0.00761677 8.63281 0.0623043L8.07031 1.09355C7.59375 0.882617 7.0625 0.765429 6.5 0.765429C5.9375 0.765429 5.40625 0.882617 4.92969 1.09355L4.36719 0.0623043C4.33594 0.00761677 4.26562 -0.00800775 4.21094 0.0154299C4.15625 0.0466798 4.14063 0.116992 4.17188 0.171679L4.72656 1.19512C3.625 1.75762 2.88281 2.83574 2.88281 4.07793H10.1094C10.1094 2.83574 9.36719 1.75762 8.27344 1.19512ZM12 5.00762C12 4.5623 11.6406 4.21074 11.1953 4.21074C10.7578 4.21074 10.3984 4.5623 10.3984 5.00762V8.36699C10.3984 8.8123 10.7578 9.17168 11.1953 9.17168C11.6406 9.17168 12 8.8123 12 8.36699V5.00762Z" fill="white"/>
</svg>
