<svg width="14" height="14" viewBox="0 0 14 14" fill="none" xmlns="http://www.w3.org/2000/svg">
<path d="M12.0547 9.49219C11.5938 9.35156 11.1797 9.02344 10.8203 8.50781C10.4609 7.99219 10.2813 7.40625 10.2813 6.76563C10.2813 6.17188 10.4531 5.63281 10.7891 5.14844C10.9766 4.875 11.2734 4.57031 11.6797 4.22656C11.4141 3.89844 11.1406 3.63281 10.8672 3.44531C10.3828 3.10938 9.82812 2.9375 9.20312 2.9375C8.82031 2.9375 8.36719 3.03125 7.85156 3.20313C7.33594 3.38281 6.96094 3.46875 6.73438 3.46875C6.55469 3.46875 6.19531 3.39063 5.65625 3.23438C5.10938 3.07813 4.65625 3 4.27344 3C3.375 3 2.64062 3.375 2.05469 4.125C1.46875 4.88281 1.17188 5.85156 1.17188 7.04688C1.17188 8.32813 1.5625 9.63281 2.32031 10.9766C3.09375 12.3203 3.86719 13 4.67188 13C4.92969 13 5.27344 12.9141 5.70312 12.7344C6.125 12.5625 6.5 12.4766 6.8125 12.4766C7.13281 12.4766 7.53125 12.5547 7.99219 12.7266C8.46094 12.8906 8.82031 12.9766 9.08594 12.9766C9.75 12.9766 10.4219 12.4688 11.0938 11.4453C11.5469 10.7656 11.8594 10.1094 12.0547 9.49219ZM9.11719 0.328126C9.11719 0.273438 9.10938 0.226563 9.10938 0.171876C9.10156 0.125 9.08594 0.0703129 9.07031 0C8.16406 0.210938 7.50781 0.59375 7.11719 1.15625C6.72656 1.71875 6.52344 2.39063 6.50781 3.16406C6.875 3.13281 7.14062 3.08594 7.32031 3.03125C7.60156 2.9375 7.88281 2.75 8.16406 2.46875C8.49219 2.14063 8.73438 1.78125 8.89063 1.39063C9.03906 1.00781 9.11719 0.648438 9.11719 0.328126Z" fill="white"/>
</svg>
