<svg width="38" height="37" viewBox="0 0 38 37" fill="none" xmlns="http://www.w3.org/2000/svg">
<path fill-rule="evenodd" clip-rule="evenodd" d="M11.0996 7.0508C11.1015 6.87206 11.1746 6.7013 11.3031 6.57559C11.4315 6.44989 11.6049 6.37938 11.7856 6.37939H26.2517C26.4321 6.37925 26.6053 6.4498 26.7334 6.57561C26.8614 6.70141 26.9339 6.87226 26.935 7.0508V10.7413L31.9562 12.0775C32.2924 12.1641 32.4876 12.5343 32.39 12.8951L29.3694 24.0484L29.3687 27.3903C29.3687 27.5703 29.2964 27.743 29.1677 27.8703C29.0391 27.9975 28.8646 28.0691 28.6827 28.0691H9.35162C9.16968 28.0691 8.99519 27.9975 8.86653 27.8703C8.73788 27.743 8.6656 27.5703 8.6656 27.3903V21.5579L5.66631 13.4062C5.53755 13.0553 5.69956 12.6721 6.02621 12.5547L11.0996 10.7278V7.0508ZM21.5135 9.29866L25.9973 10.4918V7.30513H12.0373V10.3901L20.1651 7.46325C20.4923 7.34578 20.8649 7.53634 20.9941 7.88719L21.5135 9.29866ZM29.1709 12.4512C29.0423 12.3239 28.8678 12.2524 28.6858 12.2524H22.6003L21.9046 10.3615L31.4197 12.8935L29.3702 20.4612L29.3718 12.9311C29.3718 12.7511 29.2996 12.5784 29.1709 12.4512ZM6.63291 13.3216L8.6656 18.8462V12.9311C8.6656 12.7926 8.70838 12.6585 8.7867 12.546L6.63291 13.3216ZM20.1986 8.43661L21.6026 12.2524H9.60215L20.1986 8.43661ZM25.796 17.9541C25.759 17.9693 25.7194 17.9771 25.6793 17.9771H19.8941V16.4708H25.6793C25.7601 16.4708 25.8375 16.5026 25.8946 16.5591C25.9518 16.6156 25.9838 16.6922 25.9838 16.7721V17.6753C25.9839 17.7149 25.9761 17.7541 25.9608 17.7907C25.9455 17.8274 25.9231 17.8606 25.8948 17.8887C25.8666 17.9167 25.833 17.9389 25.796 17.9541ZM25.8945 23.6122C25.8374 23.6685 25.76 23.7002 25.6793 23.7002H19.8941V22.194H25.6793C25.7601 22.194 25.8375 22.2257 25.8946 22.2822C25.9518 22.3387 25.9838 22.4153 25.9838 22.4952V23.3995C25.9837 23.4793 25.9515 23.5558 25.8945 23.6122ZM26.8081 20.7499C26.751 20.8064 26.6736 20.8381 26.5928 20.8381H19.8941V19.3319H26.5928C26.6735 19.332 26.7509 19.3638 26.808 19.4203C26.865 19.4767 26.8972 19.5533 26.8973 19.6331V20.5369C26.8973 20.6168 26.8652 20.6934 26.8081 20.7499ZM18.216 20.1683C18.2151 19.939 18.1959 19.7101 18.1584 19.4838H14.7183V20.8413H16.6882C16.5257 21.6688 15.7911 22.2686 14.7183 22.2686C13.5225 22.2686 12.5547 21.2678 12.5547 20.0847C12.5547 18.9017 13.5246 17.9008 14.7183 17.9008C15.2393 17.8925 15.7427 18.0871 16.1199 18.4428L17.1627 17.4111C16.5011 16.7971 15.6249 16.4603 14.7178 16.4714C14.2343 16.4656 13.7544 16.5549 13.3061 16.7339C12.8577 16.913 12.4497 17.1784 12.1058 17.5146C11.7618 17.8508 11.4887 18.2512 11.3024 18.6926C11.116 19.1341 11.02 19.6077 11.02 20.0861C11.02 20.5644 11.116 21.038 11.3024 21.4795C11.4887 21.9209 11.7618 22.3213 12.1058 22.6575C12.4497 22.9937 12.8577 23.2591 13.3061 23.4382C13.7544 23.6172 14.2343 23.7065 14.7178 23.7007C16.8286 23.7007 18.216 22.2331 18.216 20.1683Z" fill="#0DD0BA"/>
</svg>
