<svg width="38" height="37" viewBox="0 0 38 37" fill="none" xmlns="http://www.w3.org/2000/svg">
<path fill-rule="evenodd" clip-rule="evenodd" d="M11.0998 7.0508C11.1017 6.87206 11.1749 6.7013 11.3033 6.57559C11.4318 6.44989 11.6051 6.37938 11.7858 6.37939H26.2519C26.4324 6.37925 26.6056 6.4498 26.7336 6.57561C26.8617 6.70141 26.9342 6.87226 26.9353 7.0508V10.7413L31.9565 12.0775C32.2926 12.1641 32.4879 12.5343 32.3903 12.8951L29.3696 24.0484L29.3689 27.3903C29.3689 27.5703 29.2966 27.743 29.168 27.8703C29.0393 27.9975 28.8648 28.0691 28.6829 28.0691H9.35187C9.16992 28.0691 8.99543 27.9975 8.86678 27.8703C8.73812 27.743 8.66585 27.5703 8.66585 27.3903V21.5579L5.66656 13.4062C5.5378 13.0553 5.6998 12.6721 6.02645 12.5547L11.0998 10.7278V7.0508ZM21.5138 9.29866L25.9975 10.4918V7.30513H12.0376V10.3901L20.1654 7.46325C20.4925 7.34578 20.8651 7.53634 20.9944 7.88719L21.5138 9.29866ZM29.1712 12.4512C29.0425 12.3239 28.868 12.2524 28.6861 12.2524H22.6006L21.9048 10.3615L31.42 12.8935L29.3704 20.4612L29.3721 12.9311C29.3721 12.7511 29.2998 12.5784 29.1712 12.4512ZM6.63316 13.3216L8.66585 18.8462V12.9311C8.66585 12.7926 8.70863 12.6585 8.78695 12.546L6.63316 13.3216ZM20.1988 8.43661L21.6029 12.2524H9.60239L20.1988 8.43661ZM25.7962 17.9541C25.7593 17.9693 25.7196 17.9771 25.6796 17.9771H19.8943V16.4708H25.6796C25.7603 16.4708 25.8378 16.5026 25.8949 16.5591C25.952 16.6156 25.9841 16.6922 25.9841 16.7721V17.6753C25.9841 17.7149 25.9763 17.7541 25.961 17.7907C25.9458 17.8274 25.9234 17.8606 25.8951 17.8887C25.8668 17.9167 25.8332 17.9389 25.7962 17.9541ZM25.8947 23.6122C25.8376 23.6685 25.7602 23.7002 25.6796 23.7002H19.8943V22.194H25.6796C25.7603 22.194 25.8378 22.2257 25.8949 22.2822C25.952 22.3387 25.9841 22.4153 25.9841 22.4952V23.3995C25.9839 23.4793 25.9518 23.5558 25.8947 23.6122ZM26.8084 20.7499C26.7513 20.8064 26.6738 20.8381 26.5931 20.8381H19.8943V19.3319H26.5931C26.6738 19.332 26.7511 19.3638 26.8082 19.4203C26.8653 19.4767 26.8974 19.5533 26.8975 19.6331V20.5369C26.8975 20.6168 26.8655 20.6934 26.8084 20.7499ZM18.2162 20.1683C18.2153 19.939 18.1961 19.7101 18.1587 19.4838H14.7185V20.8413H16.6885C16.526 21.6688 15.7914 22.2686 14.7185 22.2686C13.5228 22.2686 12.5549 21.2678 12.5549 20.0847C12.5549 18.9017 13.5249 17.9008 14.7185 17.9008C15.2395 17.8925 15.743 18.0871 16.1201 18.4428L17.1629 17.4111C16.5013 16.7971 15.6251 16.4603 14.718 16.4714C14.2345 16.4656 13.7547 16.5549 13.3063 16.7339C12.858 16.913 12.45 17.1784 12.106 17.5146C11.7621 17.8508 11.489 18.2512 11.3026 18.6926C11.1162 19.1341 11.0203 19.6077 11.0203 20.0861C11.0203 20.5644 11.1162 21.038 11.3026 21.4795C11.489 21.9209 11.7621 22.3213 12.106 22.6575C12.45 22.9937 12.858 23.2591 13.3063 23.4382C13.7547 23.6172 14.2345 23.7065 14.718 23.7007C16.8289 23.7007 18.2162 22.2331 18.2162 20.1683Z" fill="white"/>
</svg>
