<svg width="38" height="37" viewBox="0 0 38 37" fill="none" xmlns="http://www.w3.org/2000/svg">
<path d="M14.9227 10.2692C13.9724 10.3141 13.3234 10.4657 12.7561 10.6887C12.169 10.9175 11.6714 11.2245 11.1762 11.7214C10.6811 12.2184 10.3762 12.7164 10.149 13.3044C9.92908 13.8729 9.78011 14.5224 9.73814 15.4732C9.69616 16.424 9.68687 16.7296 9.69152 19.1549C9.69616 21.5803 9.70688 21.8843 9.75296 22.837C9.79833 23.7871 9.94945 24.4359 10.1724 25.0034C10.4015 25.5905 10.7082 26.088 11.2053 26.5833C11.7024 27.0786 12.2001 27.3828 12.7895 27.6103C13.3576 27.8299 14.0072 27.9796 14.9578 28.0212C15.9085 28.0628 16.2145 28.0724 18.6391 28.0678C21.0637 28.0631 21.369 28.0524 22.3216 28.0072C23.2741 27.962 23.9195 27.8099 24.4872 27.588C25.0743 27.3583 25.5721 27.0521 26.0671 26.5549C26.5621 26.0576 26.8668 25.5592 27.0938 24.9709C27.3139 24.4028 27.4634 23.7532 27.5046 22.8033C27.5463 21.85 27.5561 21.5456 27.5514 19.1206C27.5468 16.6957 27.5359 16.3917 27.4907 15.4393C27.4455 14.4869 27.2942 13.8401 27.0715 13.2722C26.842 12.6851 26.5356 12.188 26.0387 11.6923C25.5418 11.1967 25.043 10.8921 24.4548 10.6656C23.8865 10.4457 23.2372 10.2959 22.2865 10.2548C21.3359 10.2137 21.0299 10.2032 18.6044 10.2078C16.1789 10.2124 15.8752 10.2228 14.9227 10.2692ZM15.027 26.4145C14.1562 26.3766 13.6834 26.2319 13.3683 26.1108C12.951 25.9501 12.6538 25.7557 12.3398 25.4447C12.0258 25.1338 11.8328 24.8355 11.6699 24.4191C11.5476 24.104 11.4002 23.6317 11.3595 22.761C11.3152 21.8198 11.3059 21.5372 11.3007 19.1528C11.2955 16.7684 11.3047 16.4862 11.3459 15.5447C11.3831 14.6746 11.5286 14.2012 11.6496 13.8863C11.8103 13.4685 12.004 13.1718 12.3157 12.858C12.6274 12.5442 12.9248 12.3509 13.3415 12.188C13.6562 12.0651 14.1285 11.919 14.9989 11.8776C15.9408 11.8329 16.223 11.824 18.6071 11.8188C20.9912 11.8136 21.2741 11.8225 22.2163 11.864C23.0864 11.9018 23.5599 12.046 23.8745 12.1676C24.2919 12.3284 24.589 12.5215 24.9028 12.8337C25.2167 13.1459 25.4101 13.4423 25.573 13.8599C25.6961 14.1737 25.8422 14.6458 25.8833 15.5168C25.9281 16.4587 25.9383 16.7411 25.9426 19.1249C25.9469 21.5088 25.9385 21.7919 25.8972 22.7331C25.8592 23.6039 25.7148 24.0769 25.5936 24.3923C25.4328 24.8094 25.239 25.1068 24.9271 25.4204C24.6152 25.7341 24.3182 25.9274 23.9013 26.0903C23.5869 26.213 23.1141 26.3595 22.2444 26.4009C21.3025 26.4452 21.0203 26.4545 18.6353 26.4597C16.2504 26.4648 15.969 26.4552 15.0271 26.4145M22.3078 14.3645C22.3082 14.5765 22.3714 14.7836 22.4894 14.9597C22.6075 15.1357 22.7751 15.2728 22.9711 15.3536C23.1671 15.4344 23.3827 15.4552 23.5905 15.4135C23.7983 15.3717 23.9891 15.2693 24.1388 15.1191C24.2884 14.969 24.3901 14.7778 24.4311 14.5698C24.472 14.3618 24.4504 14.1464 24.3689 13.9507C24.2874 13.755 24.1497 13.5879 23.9732 13.4704C23.7967 13.353 23.5894 13.2906 23.3774 13.291C23.0932 13.2916 22.8209 13.405 22.6203 13.6063C22.4197 13.8076 22.3073 14.0803 22.3078 14.3645ZM14.0358 19.1467C14.0408 21.6796 16.0978 23.7282 18.6301 23.7234C21.1625 23.7185 23.2125 21.6617 23.2077 19.1289C23.2029 16.596 21.1453 14.5469 18.6126 14.5519C16.0799 14.5569 14.031 16.6142 14.0358 19.1467ZM15.6445 19.1435C15.6433 18.5547 15.8168 17.9788 16.1429 17.4885C16.4691 16.9983 16.9333 16.6158 17.4768 16.3894C18.0204 16.163 18.6189 16.1029 19.1966 16.2166C19.7743 16.3303 20.3053 16.6128 20.7225 17.0283C21.1397 17.4439 21.4243 17.9738 21.5403 18.551C21.6563 19.1283 21.5985 19.727 21.3743 20.2715C21.15 20.8159 20.7694 21.2816 20.2805 21.6097C19.7915 21.9378 19.2163 22.1135 18.6275 22.1147C18.2365 22.1155 17.8492 22.0393 17.4877 21.8904C17.1262 21.7416 16.7975 21.5229 16.5205 21.247C16.2435 20.9711 16.0236 20.6433 15.8732 20.2824C15.7229 19.9215 15.6452 19.5345 15.6445 19.1435Z" fill="#0DD0BA"/>
</svg>
