<svg width="38" height="37" viewBox="0 0 38 37" fill="none" xmlns="http://www.w3.org/2000/svg">
<path d="M14.9228 10.2692C13.9725 10.3141 13.3236 10.4657 12.7563 10.6887C12.1691 10.9175 11.6715 11.2245 11.1763 11.7214C10.6812 12.2184 10.3763 12.7164 10.1491 13.3044C9.92921 13.8729 9.78023 14.5224 9.73826 15.4732C9.69628 16.424 9.68699 16.7296 9.69164 19.1549C9.69628 21.5803 9.707 21.8843 9.75308 22.837C9.79845 23.7871 9.94957 24.4359 10.1725 25.0034C10.4017 25.5905 10.7084 26.088 11.2055 26.5833C11.7026 27.0786 12.2002 27.3828 12.7897 27.6103C13.3577 27.8299 14.0073 27.9796 14.958 28.0212C15.9086 28.0628 16.2146 28.0724 18.6392 28.0678C21.0638 28.0631 21.3691 28.0524 22.3217 28.0072C23.2743 27.962 23.9196 27.8099 24.4873 27.588C25.0744 27.3583 25.5722 27.0521 26.0672 26.5549C26.5622 26.0576 26.8669 25.5592 27.0939 24.9709C27.314 24.4028 27.4635 23.7532 27.5048 22.8033C27.5464 21.85 27.5562 21.5456 27.5516 19.1206C27.5469 16.6957 27.536 16.3917 27.4908 15.4393C27.4456 14.4869 27.2943 13.8401 27.0716 13.2722C26.8421 12.6851 26.5357 12.188 26.0388 11.6923C25.5419 11.1967 25.0432 10.8921 24.455 10.6656C23.8866 10.4457 23.2373 10.2959 22.2867 10.2548C21.336 10.2137 21.0301 10.2032 18.6045 10.2078C16.179 10.2124 15.8754 10.2228 14.9228 10.2692ZM15.0271 26.4145C14.1563 26.3766 13.6835 26.2319 13.3684 26.1108C12.9511 25.9501 12.6539 25.7557 12.3399 25.4447C12.0259 25.1338 11.833 24.8355 11.6701 24.4191C11.5477 24.104 11.4003 23.6317 11.3596 22.761C11.3153 21.8198 11.306 21.5372 11.3008 19.1528C11.2957 16.7684 11.3048 16.4862 11.346 15.5447C11.3832 14.6746 11.5288 14.2012 11.6497 13.8863C11.8105 13.4685 12.0041 13.1718 12.3158 12.858C12.6275 12.5442 12.9249 12.3509 13.3416 12.188C13.6563 12.0651 14.1286 11.919 14.999 11.8776C15.9409 11.8329 16.2231 11.824 18.6072 11.8188C20.9913 11.8136 21.2742 11.8225 22.2165 11.864C23.0865 11.9018 23.5601 12.046 23.8746 12.1676C24.2921 12.3284 24.5891 12.5215 24.903 12.8337C25.2168 13.1459 25.4102 13.4423 25.5731 13.8599C25.6962 14.1737 25.8423 14.6458 25.8834 15.5168C25.9282 16.4587 25.9384 16.7411 25.9427 19.1249C25.947 21.5088 25.9386 21.7919 25.8973 22.7331C25.8593 23.6039 25.715 24.0769 25.5937 24.3923C25.4329 24.8094 25.2391 25.1068 24.9272 25.4204C24.6154 25.7341 24.3183 25.9274 23.9014 26.0903C23.587 26.213 23.1142 26.3595 22.2445 26.4009C21.3026 26.4452 21.0204 26.4545 18.6354 26.4597C16.2505 26.4648 15.9691 26.4552 15.0273 26.4145M22.3079 14.3645C22.3083 14.5765 22.3715 14.7836 22.4896 14.9597C22.6076 15.1357 22.7753 15.2728 22.9713 15.3536C23.1672 15.4344 23.3828 15.4552 23.5906 15.4135C23.7985 15.3717 23.9893 15.2693 24.1389 15.1191C24.2885 14.969 24.3902 14.7778 24.4312 14.5698C24.4722 14.3618 24.4505 14.1464 24.369 13.9507C24.2875 13.755 24.1498 13.5879 23.9733 13.4704C23.7968 13.353 23.5895 13.2906 23.3775 13.291C23.0933 13.2916 22.821 13.405 22.6204 13.6063C22.4199 13.8076 22.3074 14.0803 22.3079 14.3645ZM14.0359 19.1467C14.0409 21.6796 16.0979 23.7282 18.6303 23.7234C21.1626 23.7185 23.2126 21.6617 23.2078 19.1289C23.203 16.596 21.1454 14.5469 18.6128 14.5519C16.0801 14.5569 14.0311 16.6142 14.0359 19.1467ZM15.6446 19.1435C15.6434 18.5547 15.8169 17.9788 16.143 17.4885C16.4692 16.9983 16.9334 16.6158 17.477 16.3894C18.0205 16.163 18.619 16.1029 19.1967 16.2166C19.7744 16.3303 20.3055 16.6128 20.7226 17.0283C21.1398 17.4439 21.4244 17.9738 21.5404 18.551C21.6564 19.1283 21.5987 19.727 21.3744 20.2715C21.1502 20.8159 20.7695 21.2816 20.2806 21.6097C19.7916 21.9378 19.2164 22.1135 18.6276 22.1147C18.2366 22.1155 17.8493 22.0393 17.4878 21.8904C17.1263 21.7416 16.7976 21.5229 16.5206 21.247C16.2436 20.9711 16.0237 20.6433 15.8734 20.2824C15.7231 19.9215 15.6453 19.5345 15.6446 19.1435Z" fill="white"/>
</svg>
