<svg width="117" height="26" viewBox="0 0 117 26" fill="none" xmlns="http://www.w3.org/2000/svg">
<path d="M1.42 20V6H4.24L8.62 14.96L13 6H15.8V20H13.82V8.56L8.6 19L3.38 8.56V20H1.42ZM23.2466 20.2C22.2599 20.2 21.3599 19.9667 20.5466 19.5C19.7466 19.0333 19.1132 18.4 18.6466 17.6C18.1799 16.8 17.9466 15.9067 17.9466 14.92C17.9466 13.9333 18.1799 13.04 18.6466 12.24C19.1132 11.44 19.7466 10.8067 20.5466 10.34C21.3599 9.86 22.2599 9.62 23.2466 9.62C24.2466 9.62 25.1466 9.86 25.9466 10.34C26.7466 10.8067 27.3799 11.44 27.8466 12.24C28.3132 13.04 28.5466 13.9333 28.5466 14.92C28.5466 15.9067 28.3132 16.8 27.8466 17.6C27.3799 18.4 26.7466 19.0333 25.9466 19.5C25.1466 19.9667 24.2466 20.2 23.2466 20.2ZM23.2466 18.44C23.8732 18.44 24.4399 18.2867 24.9466 17.98C25.4532 17.66 25.8532 17.2333 26.1466 16.7C26.4399 16.1667 26.5866 15.5667 26.5866 14.9C26.5866 14.2467 26.4332 13.66 26.1266 13.14C25.8332 12.6067 25.4332 12.18 24.9266 11.86C24.4332 11.54 23.8732 11.38 23.2466 11.38C22.6199 11.38 22.0532 11.54 21.5466 11.86C21.0532 12.18 20.6532 12.6067 20.3466 13.14C20.0532 13.66 19.9066 14.2467 19.9066 14.9C19.9066 15.5667 20.0532 16.1667 20.3466 16.7C20.6399 17.2333 21.0399 17.66 21.5466 17.98C22.0532 18.2867 22.6199 18.44 23.2466 18.44ZM30.4378 20V9.82H32.4378V11.12C32.7578 10.64 33.1511 10.2667 33.6178 10C34.0978 9.72 34.6378 9.58 35.2378 9.58C35.6511 9.59333 35.9911 9.65333 36.2578 9.76V11.56C36.0711 11.48 35.8778 11.4267 35.6778 11.4C35.4778 11.36 35.2778 11.34 35.0778 11.34C34.4911 11.34 33.9711 11.5 33.5178 11.82C33.0645 12.1267 32.7045 12.58 32.4378 13.18V20H30.4378ZM42.1538 20.18C41.1538 20.18 40.2471 19.9467 39.4338 19.48C38.6338 19.0133 37.9938 18.38 37.5138 17.58C37.0471 16.78 36.8138 15.8867 36.8138 14.9C36.8138 13.9267 37.0404 13.0467 37.4938 12.26C37.9471 11.46 38.5604 10.8267 39.3338 10.36C40.1071 9.88 40.9671 9.64 41.9138 9.64C42.8604 9.64 43.7004 9.88 44.4338 10.36C45.1671 10.8267 45.7471 11.4667 46.1738 12.28C46.6138 13.08 46.8338 13.9867 46.8338 15V15.56H38.8138C38.9204 16.12 39.1271 16.62 39.4338 17.06C39.7538 17.5 40.1538 17.8467 40.6338 18.1C41.1271 18.3533 41.6604 18.48 42.2338 18.48C42.7271 18.48 43.2004 18.4067 43.6538 18.26C44.1204 18.1 44.5071 17.8733 44.8138 17.58L46.0938 18.84C45.4938 19.2933 44.8738 19.6333 44.2338 19.86C43.6071 20.0733 42.9138 20.18 42.1538 20.18ZM38.8338 14.06H44.8538C44.7738 13.5267 44.5871 13.06 44.2938 12.66C44.0138 12.2467 43.6604 11.9267 43.2338 11.7C42.8204 11.46 42.3671 11.34 41.8738 11.34C41.3671 11.34 40.9004 11.4533 40.4738 11.68C40.0471 11.9067 39.6871 12.2267 39.3938 12.64C39.1138 13.04 38.9271 13.5133 38.8338 14.06ZM52.9183 20V9.82H54.9183V20H52.9183ZM53.9183 8.18C53.5849 8.18 53.2983 8.06 53.0583 7.82C52.8183 7.56667 52.6983 7.27333 52.6983 6.94C52.6983 6.59333 52.8183 6.30667 53.0583 6.08C53.2983 5.84 53.5849 5.72 53.9183 5.72C54.2649 5.72 54.5583 5.84 54.7983 6.08C55.0383 6.30667 55.1583 6.59333 55.1583 6.94C55.1583 7.27333 55.0383 7.56667 54.7983 7.82C54.5583 8.06 54.2649 8.18 53.9183 8.18ZM57.2738 20V9.82H59.2738V10.86C60.0604 10.0333 61.0804 9.62 62.3338 9.62C63.1204 9.62 63.8071 9.78667 64.3938 10.12C64.9938 10.4533 65.4604 10.92 65.7938 11.52C66.1404 12.12 66.3138 12.8133 66.3138 13.6V20H64.3138V13.94C64.3138 13.14 64.0871 12.5133 63.6338 12.06C63.1938 11.5933 62.5738 11.36 61.7738 11.36C61.2404 11.36 60.7604 11.4733 60.3338 11.7C59.9071 11.9267 59.5538 12.2533 59.2738 12.68V20H57.2738ZM69.8484 20V11.5H67.4884V9.82H69.8484V8.28C69.8484 7.21333 70.1418 6.4 70.7284 5.84C71.3284 5.28 72.1818 5 73.2884 5C73.5684 5 73.8284 5.02 74.0684 5.06C74.3218 5.08667 74.5484 5.13333 74.7484 5.2V6.92C74.5084 6.85333 74.2951 6.80667 74.1084 6.78C73.9218 6.74 73.7151 6.72 73.4884 6.72C72.9284 6.72 72.5084 6.85333 72.2284 7.12C71.9618 7.37333 71.8284 7.78 71.8284 8.34V9.82H74.7484V11.5H71.8284V20H69.8484ZM80.6489 20.2C79.6622 20.2 78.7622 19.9667 77.9489 19.5C77.1489 19.0333 76.5156 18.4 76.0489 17.6C75.5822 16.8 75.3489 15.9067 75.3489 14.92C75.3489 13.9333 75.5822 13.04 76.0489 12.24C76.5156 11.44 77.1489 10.8067 77.9489 10.34C78.7622 9.86 79.6622 9.62 80.6489 9.62C81.6489 9.62 82.5489 9.86 83.3489 10.34C84.1489 10.8067 84.7822 11.44 85.2489 12.24C85.7156 13.04 85.9489 13.9333 85.9489 14.92C85.9489 15.9067 85.7156 16.8 85.2489 17.6C84.7822 18.4 84.1489 19.0333 83.3489 19.5C82.5489 19.9667 81.6489 20.2 80.6489 20.2ZM80.6489 18.44C81.2756 18.44 81.8422 18.2867 82.3489 17.98C82.8556 17.66 83.2556 17.2333 83.5489 16.7C83.8422 16.1667 83.9889 15.5667 83.9889 14.9C83.9889 14.2467 83.8356 13.66 83.5289 13.14C83.2356 12.6067 82.8356 12.18 82.3289 11.86C81.8356 11.54 81.2756 11.38 80.6489 11.38C80.0222 11.38 79.4556 11.54 78.9489 11.86C78.4556 12.18 78.0556 12.6067 77.7489 13.14C77.4556 13.66 77.3089 14.2467 77.3089 14.9C77.3089 15.5667 77.4556 16.1667 77.7489 16.7C78.0422 17.2333 78.4422 17.66 78.9489 17.98C79.4556 18.2867 80.0222 18.44 80.6489 18.44Z" fill="#707070"/>
<path d="M117 18.6618C117 18.2999 116.7 18.0001 116.338 18.0001H97.6618C97.2999 18.0001 97 18.2999 97 18.6618V19.9854C97 20.3473 97.2999 20.6471 97.6618 20.6471H116.338C116.7 20.6471 117 20.3473 117 19.9854V18.6618ZM117 12.3383C117 11.9764 116.7 11.6766 116.338 11.6766H97.6618C97.2999 11.6766 97 11.9764 97 12.3383V13.6618C97 14.0238 97.2999 14.3236 97.6618 14.3236H116.338C116.7 14.3236 117 14.0238 117 13.6618V12.3383ZM117 6.01479C117 5.65289 116.7 5.35303 116.338 5.35303H97.6618C97.2999 5.35303 97 5.65289 97 6.01479V7.33832C97 7.70022 97.2999 8.00009 97.6618 8.00009H116.338C116.7 8.00009 117 7.70022 117 7.33832V6.01479Z" fill="#707070"/>
</svg>
