<svg width="27" height="30" viewBox="0 0 27 30" fill="none" xmlns="http://www.w3.org/2000/svg">
<path d="M24.7152 24.5347C25.0406 24.2093 25.0406 23.6701 24.7152 23.3447L5.095 3.7245C4.76962 3.39912 4.23041 3.39912 3.90503 3.72451L2.71506 4.91447C2.38968 5.23985 2.38968 5.77906 2.71506 6.10444L22.3352 25.7246C22.6606 26.05 23.1998 26.05 23.5252 25.7246L24.7152 24.5347Z" fill="#2A86E5"/>
<path d="M3.90471 25.7249C4.23009 26.0502 4.76929 26.0502 5.09467 25.7249L24.7149 6.10468C25.0402 5.77929 25.0402 5.24009 24.7149 4.91471L23.5249 3.72474C23.1995 3.39936 22.6603 3.39936 22.3349 3.72474L2.71474 23.3449C2.38936 23.6703 2.38936 24.2095 2.71474 24.5349L3.90471 25.7249Z" fill="#2A86E5"/>
</svg>
