<svg width="38" height="37" viewBox="0 0 38 37" fill="none" xmlns="http://www.w3.org/2000/svg">
<path d="M27.6242 13.3403C26.971 13.6218 26.2615 13.8245 25.5294 13.9034C26.284 13.4529 26.8584 12.7434 27.1287 11.8987C26.4304 12.3154 25.642 12.6195 24.8199 12.7772C24.1554 12.0676 23.2094 11.6284 22.162 11.6284C20.1461 11.6284 18.5244 13.2614 18.5244 15.2661C18.5244 15.5477 18.5581 15.8292 18.6144 16.0995C15.5962 15.9418 12.9045 14.5003 11.1138 12.2929C10.7985 12.8335 10.6183 13.4529 10.6183 14.1286C10.6183 15.39 11.2602 16.5049 12.2401 17.1581C11.6432 17.1356 11.0801 16.9667 10.5958 16.6964C10.5958 16.7077 10.5958 16.7302 10.5958 16.7414C10.5958 18.5096 11.8459 19.9737 13.5127 20.3116C13.2086 20.3904 12.882 20.4354 12.5554 20.4354C12.3189 20.4354 12.0936 20.4129 11.8684 20.3791C12.3302 21.8207 13.6704 22.8681 15.2696 22.9019C14.0195 23.8817 12.454 24.456 10.7534 24.456C10.4494 24.456 10.1678 24.4448 9.875 24.411C11.4855 25.4471 13.4001 26.044 15.461 26.044C22.1508 26.044 25.811 20.503 25.811 15.6941C25.811 15.5364 25.811 15.3787 25.7997 15.2211C26.5092 14.703 27.1287 14.061 27.6242 13.3403Z" fill="#0DD0BA"/>
</svg>
