<svg width="13" height="13" viewBox="0 0 13 13" fill="none" xmlns="http://www.w3.org/2000/svg">
<path d="M11.5 10.5547C11.5 8.5 10.9922 6.125 8.94531 6.125C8.3125 6.74219 7.45312 7.125 6.5 7.125C5.54688 7.125 4.6875 6.74219 4.05469 6.125C2.00781 6.125 1.5 8.5 1.5 10.5547C1.5 11.6953 2.25 12.625 3.16406 12.625H9.83594C10.75 12.625 11.5 11.6953 11.5 10.5547ZM9.5 3.625C9.5 1.96875 8.15625 0.625 6.5 0.625C4.84375 0.625 3.5 1.96875 3.5 3.625C3.5 5.28125 4.84375 6.625 6.5 6.625C8.15625 6.625 9.5 5.28125 9.5 3.625Z" fill="white"/>
</svg>
