<svg width="38" height="37" viewBox="0 0 38 37" fill="none" xmlns="http://www.w3.org/2000/svg">
<path d="M9.82568 10.2068V13.4544C17.888 13.4544 24.4401 20.0066 24.4401 28.0689H27.6878C27.6878 18.2041 19.6904 10.2068 9.82568 10.2068ZM9.82568 15.8902V19.1378C14.754 19.1378 18.7567 23.1405 18.7567 28.0689H22.0044C22.0044 21.3462 16.5483 15.8902 9.82568 15.8902ZM12.2614 23.1974C11.6154 23.1974 10.9959 23.454 10.5391 23.9108C10.0823 24.3676 9.82568 24.9871 9.82568 25.6331C9.82568 26.2791 10.0823 26.8987 10.5391 27.3554C10.9959 27.8122 11.6154 28.0689 12.2614 28.0689C12.9074 28.0689 13.527 27.8122 13.9837 27.3554C14.4405 26.8987 14.6972 26.2791 14.6972 25.6331C14.6972 24.9871 14.4405 24.3676 13.9837 23.9108C13.527 23.454 12.9074 23.1974 12.2614 23.1974Z" fill="white"/>
</svg>
