<svg width="38" height="37" viewBox="0 0 38 37" fill="none" xmlns="http://www.w3.org/2000/svg">
<path fill-rule="evenodd" clip-rule="evenodd" d="M27.1963 11.9398C28.1338 12.1913 28.872 12.9323 29.1225 13.8734C29.5778 15.5791 29.5778 19.1378 29.5778 19.1378C29.5778 19.1378 29.5778 22.6965 29.1225 24.4024C28.872 25.3433 28.1338 26.0844 27.1963 26.336C25.4972 26.793 18.6839 26.793 18.6839 26.793C18.6839 26.793 11.8707 26.793 10.1716 26.336C9.23417 26.0844 8.49586 25.3433 8.24532 24.4024C7.79004 22.6965 7.79004 19.1378 7.79004 19.1378C7.79004 19.1378 7.79004 15.5791 8.24532 13.8734C8.49586 12.9323 9.23417 12.1913 10.1716 11.9398C11.8707 11.4827 18.6839 11.4827 18.6839 11.4827C18.6839 11.4827 25.4972 11.4827 27.1963 11.9398ZM22.1477 19.138L16.4532 22.3689V15.9068L22.1477 19.138Z" fill="#0DD0BA"/>
</svg>
