<svg width="38" height="37" viewBox="0 0 38 37" fill="none" xmlns="http://www.w3.org/2000/svg">
<path fill-rule="evenodd" clip-rule="evenodd" d="M27.1966 11.9398C28.1341 12.1913 28.8723 12.9323 29.1229 13.8734C29.5782 15.5791 29.5782 19.1378 29.5782 19.1378C29.5782 19.1378 29.5782 22.6965 29.1229 24.4024C28.8723 25.3433 28.1341 26.0844 27.1966 26.336C25.4976 26.793 18.6843 26.793 18.6843 26.793C18.6843 26.793 11.8711 26.793 10.1719 26.336C9.23454 26.0844 8.49623 25.3433 8.24569 24.4024C7.79041 22.6965 7.79041 19.1378 7.79041 19.1378C7.79041 19.1378 7.79041 15.5791 8.24569 13.8734C8.49623 12.9323 9.23454 12.1913 10.1719 11.9398C11.8711 11.4827 18.6843 11.4827 18.6843 11.4827C18.6843 11.4827 25.4976 11.4827 27.1966 11.9398ZM22.1481 19.138L16.4536 22.3689V15.9068L22.1481 19.138Z" fill="white"/>
</svg>
