<svg width="40" height="40" viewBox="0 0 40 40" fill="none" xmlns="http://www.w3.org/2000/svg">
<path d="M0 0H40V36C40 38.2091 38.2091 40 36 40H0V0Z" fill="#F95149"/>
<path d="M26.7307 12.9795C25.9025 12.096 24.766 11.6094 23.5304 11.6094C22.6068 11.6094 21.761 11.8966 21.0163 12.4629C20.6406 12.7487 20.3002 13.0985 20 13.5066C19.6999 13.0985 19.3594 12.7487 18.9835 12.4629C18.239 11.8966 17.3932 11.6094 16.4696 11.6094C15.234 11.6094 14.0974 12.096 13.2692 12.9795C12.4508 13.8526 12 15.0455 12 16.3385C12 17.6693 12.5043 18.8876 13.5869 20.1724C14.5554 21.3217 15.9474 22.4884 17.5593 23.8394C18.1097 24.3008 18.7337 24.8237 19.3815 25.3808C19.5526 25.5282 19.7725 25.6095 20 25.6094C20.2277 25.6094 20.4474 25.5282 20.6183 25.381C21.2661 24.8238 21.8904 24.3006 22.441 23.839C24.0528 22.4882 25.4447 21.3217 26.4132 20.1722C27.4958 18.8876 28 17.6693 28 16.3384C28 15.0455 27.5492 13.8526 26.7307 12.9795Z" fill="white"/>
</svg>
