<svg width="40" height="40" viewBox="0 0 40 40" fill="none" xmlns="http://www.w3.org/2000/svg">
<rect width="40" height="40" fill="#CD1C1F"/>
<g clip-path="url(#clip0_1_4532)">
<path d="M19.9688 9.60938C15.9609 9.60938 12 12.2813 12 16.6055C12 19.3555 13.5469 20.918 14.4844 20.918C14.8711 20.918 15.0938 19.8398 15.0938 19.5352C15.0938 19.1719 14.168 18.3984 14.168 16.8867C14.168 13.7461 16.5586 11.5195 19.6523 11.5195C22.3125 11.5195 24.2812 13.0313 24.2812 15.8086C24.2812 17.8828 23.4492 21.7734 20.7539 21.7734C19.7813 21.7734 18.9492 21.0703 18.9492 20.0625C18.9492 18.5859 19.9805 17.1563 19.9805 15.6328C19.9805 13.0469 16.3125 13.5156 16.3125 16.6406C16.3125 17.2969 16.3945 18.0234 16.6875 18.6211C16.1484 20.9414 15.0469 24.3984 15.0469 26.7891C15.0469 27.5273 15.1523 28.2539 15.2227 28.9922C15.3555 29.1406 15.2891 29.125 15.4922 29.0508C17.4609 26.3555 17.3906 25.8281 18.2812 22.3008C18.7617 23.2148 20.0039 23.707 20.9883 23.707C25.1367 23.707 27 19.6641 27 16.0195C27 12.1406 23.6484 9.60938 19.9688 9.60938Z" fill="white"/>
</g>
<defs>
<clipPath id="clip0_1_4532">
<rect width="20" height="20" fill="white" transform="translate(10 9.60938)"/>
</clipPath>
</defs>
</svg>
