<svg width="40" height="40" viewBox="0 0 40 40" fill="none" xmlns="http://www.w3.org/2000/svg">
<rect width="40" height="40" fill="#FC461E"/>
<path d="M27.4647 17.5586C26.8788 17.5586 26.3632 17.8008 25.9843 18.1797C24.5897 17.2148 22.7108 16.5938 20.6288 16.5273L21.7108 11.6523L25.1561 12.4258C25.1561 13.2695 25.8436 13.957 26.6874 13.957C27.5468 13.957 28.2382 13.25 28.2382 12.4062C28.2382 11.5625 27.5507 10.8555 26.6874 10.8555C26.0858 10.8555 25.5663 11.2188 25.3085 11.7148L21.5038 10.8711C21.3124 10.8203 21.1249 10.957 21.0741 11.1484L19.8866 16.5234C17.8202 16.6094 15.9608 17.2305 14.5624 18.1953C14.1835 17.8008 13.6483 17.5586 13.0624 17.5586C10.8905 17.5586 10.1796 20.4727 12.1679 21.4688C12.0975 21.7773 12.0663 22.1055 12.0663 22.4336C12.0663 25.707 15.7538 28.3594 20.2811 28.3594C24.828 28.3594 28.5155 25.707 28.5155 22.4336C28.5155 22.1055 28.4804 21.7617 28.3944 21.4531C30.3436 20.4531 29.6249 17.5586 27.4647 17.5586ZM15.3202 21.6758C15.3202 20.8164 16.0077 20.125 16.871 20.125C17.7147 20.125 18.4022 20.8125 18.4022 21.6758C18.4022 22.5195 17.7147 23.207 16.871 23.207C16.0116 23.2109 15.3202 22.5195 15.3202 21.6758ZM23.6913 25.3281C22.2694 26.75 18.2577 26.75 16.8358 25.3281C16.6796 25.1914 16.6796 24.9492 16.8358 24.793C16.9725 24.6563 17.2147 24.6563 17.3515 24.793C18.4374 25.9063 22.039 25.9258 23.1718 24.793C23.3085 24.6563 23.5507 24.6563 23.6874 24.793C23.8475 24.9492 23.8475 25.1914 23.6913 25.3281ZM23.66 23.2109C22.8163 23.2109 22.1288 22.5234 22.1288 21.6797C22.1288 20.8203 22.8163 20.1289 23.66 20.1289C24.5194 20.1289 25.2108 20.8164 25.2108 21.6797C25.2069 22.5195 24.5194 23.2109 23.66 23.2109Z" fill="white"/>
</svg>
