<svg width="40" height="40" viewBox="0 0 40 40" fill="none" xmlns="http://www.w3.org/2000/svg">
<rect width="40" height="40" fill="#24A2E0"/>
<path fill-rule="evenodd" clip-rule="evenodd" d="M11.8399 18.8862C16.933 16.6093 20.3375 15.1377 22.0261 14.4157C26.8741 12.361 27.8818 12 28.5355 12C28.6716 12 28.9985 12.0278 29.2164 12.1944C29.3798 12.3332 29.4342 12.5276 29.4615 12.6664C29.4887 12.8052 29.516 13.1107 29.4887 13.3606C29.2164 16.1651 28.0997 23.0235 27.5005 26.1612C27.2554 27.494 26.7651 27.9383 26.3021 27.9938C25.2944 28.0771 24.5046 27.2997 23.5241 26.661C21.9989 25.6336 21.1273 24.995 19.6293 23.9954C17.9135 22.8292 19.0301 22.1905 20.0106 21.1631C20.2558 20.8855 24.7497 16.7482 24.8314 16.3594C24.8314 16.3039 24.8586 16.1373 24.7497 16.054C24.6407 15.9707 24.5046 15.9985 24.3956 16.0262C24.2322 16.054 21.781 17.72 17.0147 20.9965C16.3066 21.4963 15.6801 21.7185 15.1082 21.7185C14.4818 21.7185 13.2834 21.3575 12.3846 21.0521C11.2952 20.6911 10.4236 20.4967 10.5053 19.8858C10.587 19.5526 11.0228 19.2194 11.8399 18.8862Z" fill="white"/>
</svg>
