<svg width="40" height="40" viewBox="0 0 40 40" fill="none" xmlns="http://www.w3.org/2000/svg">
<rect width="40" height="40" fill="#00ABF0"/>
<path d="M27.9441 15.6576C27.9568 15.8352 27.9568 16.0129 27.9568 16.1906C27.9568 21.6093 23.8325 27.853 16.2944 27.853C13.9721 27.853 11.8147 27.1804 10 26.0129C10.33 26.051 10.6472 26.0637 10.9898 26.0637C12.9061 26.0637 14.67 25.4165 16.0787 24.3124C14.2766 24.2743 12.7665 23.0941 12.2462 21.4698C12.5 21.5078 12.7538 21.5332 13.0203 21.5332C13.3883 21.5332 13.7564 21.4824 14.099 21.3936C12.2208 21.0129 10.8121 19.3632 10.8121 17.3708V17.32C11.3578 17.6246 11.9924 17.815 12.6649 17.8403C11.5609 17.1043 10.8375 15.8479 10.8375 14.4266C10.8375 13.6652 11.0405 12.9672 11.3959 12.3581C13.4137 14.8454 16.4467 16.4697 19.8477 16.6474C19.7842 16.3429 19.7461 16.0256 19.7461 15.7084C19.7461 13.4495 21.5736 11.6094 23.8451 11.6094C25.0253 11.6094 26.0913 12.1043 26.84 12.9038C27.7664 12.7261 28.6547 12.3835 29.4416 11.9139C29.137 12.8657 28.4898 13.6652 27.6395 14.1728C28.4644 14.084 29.2639 13.8555 29.9999 13.5383C29.4416 14.3505 28.7436 15.0738 27.9441 15.6576Z" fill="white"/>
</svg>
